<?xml version="1.0" standalone="no"?>
<!DOCTYPE svg PUBLIC "-//W3C//DTD SVG 20010904//EN"
 "http://www.w3.org/TR/2001/REC-SVG-20010904/DTD/svg10.dtd">
<svg version="1.0" xmlns="http://www.w3.org/2000/svg"
 width="500.000000pt" height="500.000000pt" viewBox="0 0 500.000000 500.000000"
 preserveAspectRatio="xMidYMid meet">

<g transform="translate(0.000000,500.000000) scale(0.100000,-0.100000)"
fill="#000000" stroke="none">
<path d="M2270 4489 c-280 -45 -447 -97 -655 -201 -504 -254 -893 -734 -1036
-1278 -184 -702 5 -1429 505 -1949 141 -146 345 -295 531 -389 285 -143 574
-212 891 -212 538 0 1032 207 1411 591 116 118 169 182 259 320 160 242 264
518 310 819 22 141 22 439 0 580 -63 412 -230 769 -502 1071 -388 429 -915
662 -1491 658 -93 -1 -193 -5 -223 -10z m435 -100 c372 -43 714 -187 1000
-419 90 -74 245 -235 316 -330 174 -233 298 -516 352 -805 57 -301 40 -603
-48 -906 -290 -990 -1321 -1571 -2310 -1302 -968 262 -1565 1244 -1364 2244
140 701 677 1277 1364 1463 222 60 477 80 690 55z"/>
<path d="M1964 3157 c-2 -7 -3 -97 -2 -201 3 -166 5 -190 20 -200 28 -17 42 8
48 82 l5 67 33 3 c21 2 32 -1 32 -10 -1 -218 7 -427 17 -444 12 -21 102 -111
201 -199 l52 -47 0 -107 c0 -70 4 -111 12 -119 17 -17 239 -17 256 0 8 8 12
49 12 117 l0 105 128 122 127 121 5 229 5 229 35 0 35 0 5 -67 c6 -74 20 -99
48 -82 24 15 34 112 28 260 -6 134 -10 154 -35 154 -30 0 -41 -22 -41 -87 l0
-63 -480 0 -480 0 0 56 c0 30 -5 64 -10 75 -12 21 -48 26 -56 6z m806 -416 l0
-169 -67 -65 c-132 -127 -132 -127 -196 -127 l-57 0 -78 74 c-43 41 -90 84
-105 96 l-27 21 0 164 c0 121 3 165 13 168 6 3 126 6 265 6 l252 1 0 -169z"/>
<path d="M2449 2857 c-59 -51 -86 -146 -68 -242 44 -236 261 -190 261 55 0 80
-31 161 -72 190 -38 27 -88 26 -121 -3z"/>
<path d="M1041 2806 c-167 -167 -302 -308 -300 -314 6 -17 598 -612 609 -612
6 0 28 18 50 40 32 32 38 44 31 58 -5 9 -120 127 -255 262 -135 135 -246 250
-246 257 0 6 3 13 8 15 4 2 119 117 257 256 l249 252 -44 45 c-24 25 -47 45
-50 45 -3 0 -142 -137 -309 -304z"/>
<path d="M1880 3071 c-5 -11 -10 -61 -10 -111 0 -50 5 -100 10 -111 15 -27 45
-24 58 6 17 36 15 195 -2 218 -17 23 -43 22 -56 -2z"/>
<path d="M3085 3078 c-3 -8 -4 -66 -3 -129 l3 -114 25 0 c21 0 26 6 34 43 7
29 14 41 23 37 17 -6 31 30 25 63 -3 13 -12 27 -22 29 -9 3 -21 20 -26 41 -7
27 -15 38 -32 40 -12 2 -24 -3 -27 -10z"/>
<path d="M3646 3051 c-21 -22 -37 -44 -35 -49 2 -6 118 -126 258 -267 l254
-257 -190 -191 c-224 -227 -323 -330 -323 -337 0 -3 20 -26 45 -50 l45 -44
151 155 c83 85 222 225 307 311 l156 158 -304 305 c-168 168 -309 305 -315
305 -6 0 -28 -18 -49 -39z"/>
<path d="M1828 2985 c-8 -19 -8 -31 0 -50 18 -40 32 -29 32 25 0 54 -14 65
-32 25z"/>
<path d="M1614 2830 c-43 -13 -101 -80 -110 -125 -11 -58 0 -143 23 -173 39
-53 80 -72 153 -72 37 0 81 5 99 11 29 10 31 14 31 58 0 35 5 53 20 66 24 22
26 51 4 59 -9 3 -40 6 -69 6 -29 0 -60 -3 -69 -6 -22 -9 -20 -47 4 -62 24 -15
26 -35 5 -52 -12 -10 -21 -10 -46 1 -96 39 -65 241 34 227 15 -2 26 -14 33
-38 10 -31 16 -35 45 -35 l34 0 3 56 c2 40 -1 59 -12 68 -19 16 -142 23 -182
11z"/>
<path d="M3177 2834 c-13 -14 -7 -44 13 -64 17 -17 20 -33 20 -115 0 -83 -3
-97 -20 -112 -11 -10 -20 -28 -20 -40 0 -22 3 -23 80 -23 78 0 80 1 80 24 0
13 -7 29 -15 36 -11 9 -15 34 -15 93 0 94 10 92 35 -7 27 -112 30 -116 69
-116 35 0 35 0 56 73 47 167 45 163 48 58 2 -77 0 -96 -13 -103 -8 -5 -15 -20
-15 -33 0 -25 1 -25 85 -25 84 0 85 0 85 25 0 14 -8 29 -20 35 -18 10 -20 21
-20 114 0 91 2 105 20 121 12 11 20 28 18 39 -3 19 -11 21 -95 24 -104 3 -101
5 -123 -85 -13 -58 -26 -68 -36 -25 -3 15 -11 45 -17 67 l-12 40 -90 3 c-50 1
-94 0 -98 -4z"/>
<path d="M3010 2388 c-49 -18 -83 -72 -77 -122 6 -46 41 -84 118 -132 32 -19
60 -41 63 -50 9 -24 -12 -54 -37 -54 -29 0 -47 18 -47 47 0 25 -29 37 -71 31
-22 -3 -24 -9 -27 -65 -3 -56 -1 -63 20 -74 13 -7 61 -13 109 -13 78 -1 89 1
121 26 24 18 39 41 47 71 12 40 11 48 -8 85 -16 32 -37 50 -96 83 -64 37 -75
47 -75 70 0 15 7 29 16 33 24 9 54 -12 54 -39 0 -28 33 -41 75 -31 23 6 25 11
25 61 0 51 -2 56 -27 66 -44 17 -145 20 -183 7z"/>
<path d="M1781 2355 c-79 -67 -57 -152 58 -223 39 -24 73 -51 76 -61 7 -24 -2
-48 -22 -55 -30 -12 -52 5 -63 45 -10 37 -13 39 -49 39 -45 0 -51 -9 -51 -81
0 -48 2 -51 35 -65 19 -7 64 -14 100 -14 113 0 171 46 169 135 -1 57 -25 86
-107 131 -44 25 -69 45 -73 60 -8 30 2 44 30 44 29 0 46 -18 46 -48 0 -21 4
-23 43 -20 l42 3 0 55 c0 48 -3 56 -25 67 -14 7 -60 13 -102 13 -67 0 -80 -3
-107 -25z"/>
</g>
</svg>
